# xmcd CD database file
#
# Track frame offsets:
#	187
#	13612
#	27487
#	41662
#	55162
#	68512
#	82837
#	96637
#	110512
#	123787
#	136612
#	150637
#
# Disc length: 2198 seconds
#
# Revision: 2
# Processed by: cddbd v1.5PL3 Copyright (c) Steve Scherf et al.
# Submitted via: CDex 1.50
#
DISCID=9008940c
DTITLE=Leadbelly - King Of The 12-String Guitar
DYEAR=1991
DGENRE=Blues
TTITLE0=Packin' Trunk
TTITLE1=Becky Deem, She Was A Gamblin' Girl
TTITLE2=Four Day Worry Blues
TTITLE3=Roberta Part I
TTITLE4=Death Letter Blues Part I
TTITLE5=Kansas City Papa
TTITLE6=Fort Worth Dallas Blues
TTITLE7=You Don't Know My Mind
TTITLE8=Ox Drivin' Blues
TTITLE9=Daddy I'M Coming Back To You
TTITLE10=Shorty George
TTITLE11=T.B. Woman Blues
EXTD=YEAR: 1991
EXTT0=
EXTT1=
EXTT2=
EXTT3=
EXTT4=
EXTT5=
EXTT6=
EXTT7=
EXTT8=
EXTT9=
EXTT10=
EXTT11=
PLAYORDER=
